<?xml version="1.0" encoding="UTF-8"?>
<svg width="16px" height="16px" viewBox="0 0 16 16" version="1.1" xmlns="http://www.w3.org/2000/svg" xmlns:xlink="http://www.w3.org/1999/xlink">
    <title>icon/22px/添加备份</title>
    <defs>
        <path d="M14.7827549,0.217245061 C15.0700517,0.50454181 15.0741623,0.96623122 14.7845575,1.25583605 L8.54039356,7.5 L14.7845575,13.7441639 C15.0390475,13.9986539 15.0600477,14.4009712 14.865696,14.6831098 L14.7827549,14.7827549 C14.4954582,15.0700517 14.0337688,15.0741623 13.7441639,14.7845575 L7.5,8.54039356 L1.25583605,14.7845575 C1.00134608,15.0390475 0.599028758,15.0600477 0.316890194,14.865696 L0.217245061,14.7827549 C-0.0700516884,14.4954582 -0.0741623422,14.0337688 0.215442488,13.7441639 L6.45960644,7.5 L0.215442488,1.25583605 C-0.0708587279,0.969534835 -0.0616495026,0.496139624 0.217245061,0.217245061 C0.50454181,-0.0700516884 0.96623122,-0.0741623422 1.25583605,0.215442488 L7.5,6.45960644 L13.7441639,0.215442488 C13.9986539,-0.0390474818 14.4009712,-0.0600477201 14.6831098,0.134303978 L14.7827549,0.217245061 Z" id="path-1"></path>
    </defs>
    <g id="h5-c端" stroke="none" stroke-width="1" fill="none" fill-rule="evenodd">
        <g id="直播/聊天公告" transform="translate(-19.000000, -58.000000)">
            <g id="编组-7" transform="translate(0.000000, 44.000000)">
                <g id="编组" transform="translate(16.000000, 11.000000)">
                    <g id="白色" transform="translate(3.500000, 3.500000)">
                        <mask id="mask-2" fill="white">
                            <use xlink:href="#path-1"></use>
                        </mask>
                        <use id="蒙版" fill="#FFFFFF" xlink:href="#path-1"></use>
                        <g id="编组" mask="url(#mask-2)">
                            <g transform="translate(-16.500000, -16.500000)" id="白色">
                                <rect id="矩形" fill="#D2D8DE" fill-rule="nonzero" x="0" y="0" width="48" height="48"></rect>
                            </g>
                        </g>
                    </g>
                </g>
            </g>
        </g>
    </g>
</svg>